<svg xmlns="http://www.w3.org/2000/svg" xmlns:xlink="http://www.w3.org/1999/xlink" enable-background="new 0 0 82 82" viewBox="0 0 82 82" id="app-development" width='100' height='100'><path fill="#474E5C" d="M63.8,6.6v68.8c0,3.1-2.5,5.6-5.6,5.6H23.8c-3.1,0-5.6-2.5-5.6-5.6V6.6c0-0.7,0.1-1.3,0.3-1.9C19.3,2.5,21.4,1,23.8,1h34.4C61.3,1,63.8,3.5,63.8,6.6z"></path><path fill="#7A818F" d="M45.7,3.6H40c-0.5,0-0.9,0.4-0.9,0.9c0,0.5,0.4,0.9,0.9,0.9h5.7c0.5,0,0.9-0.4,0.9-0.9C46.6,4,46.2,3.6,45.7,3.6z"></path><circle cx="36.3" cy="4.5" r=".9" fill="#7A818F"></circle><path fill="#F4F2F3" d="M61.5,6.6v68.8c0,1.8-1.5,3.3-3.3,3.3H23.8c-1.8,0-3.3-1.5-3.3-3.3V6.6c0-1.8,1.5-3.3,3.3-3.3h7.8c-0.1,0.3-0.2,0.5-0.2,0.8c0,1.4,1.1,2.4,2.5,2.4h14.2c1.4,0,2.5-1.1,2.5-2.4c0-0.3-0.1-0.6-0.2-0.8h7.8C60,3.3,61.5,4.8,61.5,6.6z"></path><path fill="#FFF" d="M59,4.9v0.8c0,0.1-0.1,0.1-0.1,0.1h-0.3V6c0,0.1,0,0.1-0.1,0.1h-3.3c-0.1,0-0.1-0.1-0.1-0.1V4.6c0-0.1,0.1-0.1,0.1-0.1h3.3c0.1,0,0.1,0.1,0.1,0.1v0.2h0.3C58.9,4.8,59,4.8,59,4.9z"></path><path fill="#60C25F" d="M57,4.5v1.6h-1.8c-0.1,0-0.1-0.1-0.1-0.1V4.6c0-0.1,0.1-0.1,0.1-0.1H57z"></path><rect width=".4" height="1.6" x="23" y="4.5" fill="#FFF"></rect><rect width=".4" height="1.3" x="23.6" y="4.9" fill="#FFF"></rect><rect width=".4" height=".8" x="24.3" y="5.3" fill="#FFF"></rect><rect width=".4" height=".5" x="24.9" y="5.6" fill="#FFF"></rect><circle cx="53.4" cy="5.9" r=".2" fill="#FFF"></circle><path fill="#FFF" d="M53.4 4.5c-.3 0-.7.1-.9.3l.1.1c.2-.2.5-.3.8-.3s.6.1.8.3l.1-.1C54 4.6 53.7 4.5 53.4 4.5zM52.7 5.1l.1.1c.2-.1.3-.2.5-.2.2 0 .4.1.5.2L54 5.1c-.2-.1-.4-.2-.6-.2C53.1 4.9 52.9 5 52.7 5.1zM53 5.4l.1.1c.1 0 .1-.1.2-.1s.2 0 .2.1l.1-.1c-.1-.1-.2-.1-.3-.1S53.1 5.4 53 5.4z"></path><path fill="#474E5C" d="M51.7,77.3c0,0.3-0.2,0.5-0.5,0.5H30.8c-0.3,0-0.5-0.2-0.5-0.5c0-0.3,0.2-0.5,0.5-0.5h20.3C51.4,76.8,51.7,77,51.7,77.3z"></path><path fill="#80CE7F" d="M61.5,6.6v30.7h-41V6.6c0-1.8,1.5-3.3,3.3-3.3h7.8c-0.1,0.3-0.2,0.5-0.2,0.8c0,1.4,1.1,2.4,2.5,2.4h14.2c1.4,0,2.5-1.1,2.5-2.4c0-0.3-0.1-0.6-0.2-0.8h7.8C60,3.3,61.5,4.8,61.5,6.6z"></path><circle cx="41" cy="15.4" r="6.7" fill="#F4F2F3"></circle><defs><circle id="a" cx="41" cy="15.4" r="6.7"></circle></defs><clipPath id="b"><use overflow="visible" xlink:href="#a"></use></clipPath><g clip-path="url(#b)"><path fill="#D8D8D8" d="M43.7,16.3c0,0.1,0.1,0.2,0.2,0.3c-0.3,0.1-0.6-0.2-0.8-0.5c-0.1,0.2-0.2,0.3-0.4,0.3h0c-0.2,0.6-0.6,1.1-1,1.3v0.9h0.8c0.1,0,0.2,0,0.3,0c0.8,0.1,1.5,0.6,1.9,1.4l0.2,0.5l0.3,0.7c0,3.5-8.8,3.5-8.8,0l0.5-1.2c0,0,0-0.1,0.1-0.1c0,0,0,0,0-0.1c0,0,0-0.1,0-0.1c0,0,0,0,0-0.1c0,0,0,0,0,0c0,0,0-0.1,0.1-0.1c0,0,0,0,0,0c0.1-0.1,0.1-0.1,0.2-0.2c0,0,0,0,0,0c0,0,0,0,0,0c0,0,0,0,0.1-0.1c0,0,0,0,0,0c0,0,0.1,0,0.1-0.1c0.3-0.2,0.6-0.4,0.9-0.4c0.2,0,0.4-0.1,0.6-0.1h0.8v-0.9c-0.5-0.3-0.8-0.7-1-1.3h0c-0.2,0-0.4-0.3-0.4-0.6c0-0.2,0.1-0.4,0.2-0.5c0-0.1,0-0.2,0-0.3c0-1.4,1-2.6,2.2-2.6c0,0,0.1,0,0.1,0c0.1-0.1,0.2-0.3,0.3-0.4c0.3-0.3,0.8-0.4,1.2-0.4c0.4,0,0.7,0.1,1.1,0.3l0.1,0.1c0.2,0.2,0.4,0.4,0.6,0.6c0.1,0.1,0.1,0.2,0.1,0.3c0.1,0.3,0.1,0.6,0.1,0.9c0,0.3-0.1,0.6-0.1,0.9c0,0.3,0.1,0.7,0.4,0.9c0.1,0,0.1,0,0.2,0c0.3,0,0.5-0.2,0.6-0.4c0,0.1,0,0.3,0,0.4c-0.1,0.4-0.2,0.8-0.5,0.9c0,0,0,0,0,0c-0.1,0.1-0.2,0.1-0.3,0.1C44.2,16.7,43.9,16.6,43.7,16.3z"></path></g><rect width="10.9" height="1" x="35.6" y="24.7" fill="#60C25F"></rect><rect width="21.7" height="1" x="30.2" y="26.9" fill="#60C25F"></rect><rect width="41" height="5.1" x="20.5" y="37.3" fill="#E8E6E7"></rect><circle cx="24.9" cy="39.8" r="1.5" fill="#6D97B0"></circle><polygon fill="#F4F2F3" points="25.7 39.7 25.7 40 25.1 40 25.1 40.7 24.8 40.7 24.8 40 24.1 40 24.1 39.7 24.8 39.7 24.8 39 25.1 39 25.1 39.7"></polygon><path fill="#6D97B0" d="M43.7,39.8c0,0.5-0.4,0.8-0.8,0.8H29c-0.5,0-0.8-0.4-0.8-0.8c0-0.5,0.4-0.8,0.8-0.8h13.8C43.3,39,43.7,39.4,43.7,39.8z"></path><circle cx="27.3" cy="49" r="3.9" fill="#6CB3E1"></circle><rect width="25.3" height="1.7" x="33.3" y="49.8" fill="#E8E6E7"></rect><rect width="10.5" height="1.7" x="33.3" y="46.4" fill="#E8E6E7"></rect><circle cx="27.3" cy="61.7" r="3.9" fill="#F96C5A"></circle><rect width="25.3" height="1.7" x="33.3" y="62.6" fill="#E8E6E7"></rect><rect width="10.5" height="1.7" x="33.3" y="59.2" fill="#E8E6E7"></rect><rect width="41" height=".3" x="20.5" y="68.1" fill="#D8D8D8" opacity=".4"></rect><rect width="41" height=".3" x="20.5" y="55.2" fill="#D8D8D8" opacity=".4"></rect><path fill="#D8D8D8" d="M58.3 32.3c.1 1.3-.9 2.4-2.2 2.4H45c-1.2 0-2.3-1-2.3-2.3 0-1.2 1-2.3 2.3-2.3h10.9C57.1 30.2 58.2 31.1 58.3 32.3zM39.2 32.3c.1 1.3-.9 2.4-2.2 2.4h-11c-1.2 0-2.3-1-2.3-2.3 0-1.2 1-2.3 2.3-2.3h10.9C38 30.2 39.1 31.1 39.2 32.3z"></path></svg>