<svg xmlns="http://www.w3.org/2000/svg" data-name="Layer 1" viewBox="0 0 64 64" id="share" width='100' height='100'><defs><linearGradient id="a" x1="-.9" x2="64.9" y1="13.07" y2="51.06" gradientUnits="userSpaceOnUse"><stop offset="0" stop-color="#1ec4ff"></stop><stop offset=".15" stop-color="#2db9ff"></stop><stop offset=".43" stop-color="#539cff"></stop><stop offset=".81" stop-color="#916eff"></stop><stop offset="1" stop-color="#b255ff"></stop></linearGradient></defs><path fill="url(#a)" d="M30.94,51.13a1,1,0,0,1-1,1h-.82a1,1,0,0,1,0-2h.82A1,1,0,0,1,30.94,51.13Zm3.94-1h-.82a1,1,0,0,0,0,2h.82a1,1,0,0,0,0-2ZM13,31a1,1,0,0,0,1-1v-.83a1,1,0,1,0-2,0V30A1,1,0,0,0,13,31Zm-1,4a1,1,0,0,0,2,0v-.83a1,1,0,0,0-2,0Zm40-5.82a1,1,0,1,0-2,0V30a1,1,0,0,0,2,0Zm-1,4a1,1,0,0,0-1,1V35a1,1,0,0,0,2,0v-.83A1,1,0,0,0,51,33.15ZM29.12,14h.82a1,1,0,0,0,0-2h-.82a1,1,0,0,0,0,2Zm5.76-2h-.82a1,1,0,0,0,0,2h.82a1,1,0,0,0,0-2ZM13,14.06A1.06,1.06,0,1,0,11.94,13,1.06,1.06,0,0,0,13,14.06ZM9,9h8v8H9Zm.94,4A3.06,3.06,0,1,0,13,9.94,3.07,3.07,0,0,0,9.94,13Zm15.6,11.12a10.26,10.26,0,0,1,2.27-1.41A26.94,26.94,0,0,0,26.35,31H21.84a10.11,10.11,0,0,1,2.29-5.45l-3.39-3.39A12,12,0,0,1,14,25v0a1,1,0,0,1-2,0v-.05A12,12,0,1,1,24.95,12H25a1,1,0,0,1,0,2h0a12,12,0,0,1-2.8,6.74ZM19,8a1,1,0,0,0-1-1H8A1,1,0,0,0,7,8V18a1,1,0,0,0,1,1H18a1,1,0,0,0,1-1ZM49.61,52.61a1.26,1.26,0,1,0,1.26,1.26A1.26,1.26,0,0,0,49.61,52.61ZM63,51.13a12,12,0,0,1-23.95,1H39a1,1,0,0,1,0-2h0a12,12,0,0,1,2.86-6.81l-3.44-3.44a10.26,10.26,0,0,1-2.27,1.41A26.94,26.94,0,0,0,37.65,33h4.51a10.11,10.11,0,0,1-2.29,5.45l3.46,3.46A12,12,0,0,1,50,39.18v0a1,1,0,0,1,2,0v.05A12,12,0,0,1,63,51.13Zm-7.35-3.08a1,1,0,0,0-1.08-.91c-1.37.11-1.66-.76-1.71-1.12a1,1,0,0,0-2,.12v4.73a3.26,3.26,0,1,0,2,3v-5a4,4,0,0,0,1.87.26A1,1,0,0,0,55.65,48.05Zm-25.31-6c.22,0,.44.07.66.1V33H28.35A20.69,20.69,0,0,0,30.34,42.06ZM38.5,24.15l3.38-3.38A12,12,0,0,1,39,14h0a1,1,0,0,1,0-2h.05A12,12,0,1,1,52,24.95V25a1,1,0,0,1-2,0v0a12,12,0,0,1-6.7-2.77l-3.4,3.4A10.11,10.11,0,0,1,42.16,31H37.65a26.94,26.94,0,0,0-1.45-8.29A10.25,10.25,0,0,1,38.5,24.15ZM48.33,18a1,1,0,0,0,2,0V14h2.33a1,1,0,0,0,0-2H50.33v-.67A2.34,2.34,0,0,1,52.67,9a1,1,0,0,0,0-2,4.34,4.34,0,0,0-4.33,4.33ZM35.65,33H33v9.16c.22,0,.44-.06.66-.1A20.69,20.69,0,0,0,35.65,33Zm-7.29-2H31V21.84c-.22,0-.44.06-.66.1A20.69,20.69,0,0,0,28.35,31ZM22.12,43.36A12,12,0,0,1,25,50.13h0a1,1,0,0,1,0,2h-.05A12,12,0,1,1,12,39.18v-.05a1,1,0,0,1,2,0v0a12,12,0,0,1,6.71,2.77l3.46-3.46A10.11,10.11,0,0,1,21.84,33h4.51a26.94,26.94,0,0,0,1.45,8.29,10.26,10.26,0,0,1-2.23-1.38Zm-11,11v-2.6h4.75a1,1,0,0,0,0-2H11.12V46.13a1,1,0,0,0-2,0v8.21a2.79,2.79,0,0,0,2.79,2.79H15.8a1,1,0,0,0,0-2H11.91A.79.79,0,0,1,11.12,54.35ZM33.66,21.94c-.22,0-.44-.07-.66-.1V31h2.65A20.69,20.69,0,0,0,33.66,21.94Z"></path></svg>